<mxfile host="app.diagrams.net" modified="2024-05-14T14:36:01.776Z" agent="Mozilla/5.0 (Windows NT 10.0; Win64; x64) AppleWebKit/537.36 (KHTML, like Gecko) Chrome/124.0.0.0 Safari/537.36" etag="olALkZZKpalCt9_-u7Z4" version="24.4.0" type="github">
  <diagram name="Página-1" id="sjnM--gIX61gZ9Nr2OTS">
    <mxGraphModel dx="2200" dy="1868" grid="1" gridSize="10" guides="1" tooltips="1" connect="1" arrows="1" fold="1" page="1" pageScale="1" pageWidth="827" pageHeight="1169" math="0" shadow="0">
      <root>
        <mxCell id="0" />
        <mxCell id="1" parent="0" />
        <mxCell id="8owuQO46JdRlv9yFXmdw-1" value="ITEN" style="rounded=0;whiteSpace=wrap;html=1;" vertex="1" parent="1">
          <mxGeometry x="490" y="50" width="120" height="60" as="geometry" />
        </mxCell>
        <mxCell id="8owuQO46JdRlv9yFXmdw-2" value="FUNCIONARIO" style="rounded=0;whiteSpace=wrap;html=1;" vertex="1" parent="1">
          <mxGeometry x="330" y="50" width="120" height="60" as="geometry" />
        </mxCell>
        <mxCell id="8owuQO46JdRlv9yFXmdw-3" value="PRODUTO" style="rounded=0;whiteSpace=wrap;html=1;" vertex="1" parent="1">
          <mxGeometry x="-170" y="50" width="120" height="60" as="geometry" />
        </mxCell>
        <mxCell id="8owuQO46JdRlv9yFXmdw-4" value="FORENECEDOR" style="rounded=0;whiteSpace=wrap;html=1;" vertex="1" parent="1">
          <mxGeometry x="150" y="50" width="120" height="60" as="geometry" />
        </mxCell>
        <mxCell id="8owuQO46JdRlv9yFXmdw-5" value="PEDIDO DE COMPRA" style="rounded=0;whiteSpace=wrap;html=1;" vertex="1" parent="1">
          <mxGeometry x="640" y="50" width="120" height="60" as="geometry" />
        </mxCell>
        <mxCell id="8owuQO46JdRlv9yFXmdw-6" value="CLIENTE" style="rounded=0;whiteSpace=wrap;html=1;" vertex="1" parent="1">
          <mxGeometry x="920" y="50" width="120" height="60" as="geometry" />
        </mxCell>
        <mxCell id="8owuQO46JdRlv9yFXmdw-7" value="ESTOQUE" style="rounded=0;whiteSpace=wrap;html=1;" vertex="1" parent="1">
          <mxGeometry x="780" y="50" width="120" height="60" as="geometry" />
        </mxCell>
        <mxCell id="8owuQO46JdRlv9yFXmdw-9" style="rounded=0;orthogonalLoop=1;jettySize=auto;html=1;endArrow=none;endFill=0;" edge="1" parent="1" source="8owuQO46JdRlv9yFXmdw-8" target="8owuQO46JdRlv9yFXmdw-3">
          <mxGeometry relative="1" as="geometry" />
        </mxCell>
        <mxCell id="8owuQO46JdRlv9yFXmdw-8" value="ID_PRODUTO" style="ellipse;whiteSpace=wrap;html=1;align=center;fontStyle=4;" vertex="1" parent="1">
          <mxGeometry x="-280" y="-60" width="100" height="40" as="geometry" />
        </mxCell>
        <mxCell id="8owuQO46JdRlv9yFXmdw-11" style="edgeStyle=none;rounded=0;orthogonalLoop=1;jettySize=auto;html=1;entryX=0.417;entryY=0;entryDx=0;entryDy=0;strokeColor=default;align=center;verticalAlign=middle;fontFamily=Helvetica;fontSize=11;fontColor=default;labelBackgroundColor=default;endArrow=none;endFill=0;entryPerimeter=0;" edge="1" parent="1" source="8owuQO46JdRlv9yFXmdw-10" target="8owuQO46JdRlv9yFXmdw-3">
          <mxGeometry relative="1" as="geometry" />
        </mxCell>
        <mxCell id="8owuQO46JdRlv9yFXmdw-10" value="NOME" style="ellipse;whiteSpace=wrap;html=1;align=center;fontFamily=Helvetica;fontSize=11;fontColor=default;labelBackgroundColor=default;" vertex="1" parent="1">
          <mxGeometry x="-220" y="-100" width="100" height="40" as="geometry" />
        </mxCell>
        <mxCell id="8owuQO46JdRlv9yFXmdw-13" style="edgeStyle=none;rounded=0;orthogonalLoop=1;jettySize=auto;html=1;strokeColor=default;align=center;verticalAlign=middle;fontFamily=Helvetica;fontSize=11;fontColor=default;labelBackgroundColor=default;endArrow=none;endFill=0;" edge="1" parent="1" source="8owuQO46JdRlv9yFXmdw-12" target="8owuQO46JdRlv9yFXmdw-3">
          <mxGeometry relative="1" as="geometry" />
        </mxCell>
        <mxCell id="8owuQO46JdRlv9yFXmdw-12" value="DESCRIÇÃO" style="ellipse;whiteSpace=wrap;html=1;align=center;fontFamily=Helvetica;fontSize=11;fontColor=default;labelBackgroundColor=default;" vertex="1" parent="1">
          <mxGeometry x="-120" y="-100" width="100" height="40" as="geometry" />
        </mxCell>
        <mxCell id="8owuQO46JdRlv9yFXmdw-16" style="edgeStyle=none;rounded=0;orthogonalLoop=1;jettySize=auto;html=1;strokeColor=default;align=center;verticalAlign=middle;fontFamily=Helvetica;fontSize=11;fontColor=default;labelBackgroundColor=default;endArrow=none;endFill=0;" edge="1" parent="1" source="8owuQO46JdRlv9yFXmdw-14" target="8owuQO46JdRlv9yFXmdw-3">
          <mxGeometry relative="1" as="geometry" />
        </mxCell>
        <mxCell id="8owuQO46JdRlv9yFXmdw-14" value="PREÇO" style="ellipse;whiteSpace=wrap;html=1;align=center;fontFamily=Helvetica;fontSize=11;fontColor=default;labelBackgroundColor=default;" vertex="1" parent="1">
          <mxGeometry x="-40" y="-70" width="100" height="40" as="geometry" />
        </mxCell>
        <mxCell id="8owuQO46JdRlv9yFXmdw-17" style="edgeStyle=none;rounded=0;orthogonalLoop=1;jettySize=auto;html=1;strokeColor=default;align=center;verticalAlign=middle;fontFamily=Helvetica;fontSize=11;fontColor=default;labelBackgroundColor=default;endArrow=none;endFill=0;exitX=0.187;exitY=0.864;exitDx=0;exitDy=0;exitPerimeter=0;" edge="1" parent="1" source="8owuQO46JdRlv9yFXmdw-19" target="8owuQO46JdRlv9yFXmdw-3">
          <mxGeometry relative="1" as="geometry">
            <mxPoint x="54.644660940672566" y="-15.857864376269163" as="sourcePoint" />
          </mxGeometry>
        </mxCell>
        <mxCell id="8owuQO46JdRlv9yFXmdw-19" value="&lt;font style=&quot;font-size: 8px;&quot;&gt;QUANTIDADE ESTOQUE&lt;/font&gt;" style="ellipse;whiteSpace=wrap;html=1;align=center;fontFamily=Helvetica;fontSize=11;fontColor=default;labelBackgroundColor=default;" vertex="1" parent="1">
          <mxGeometry x="-10" y="-30" width="100" height="40" as="geometry" />
        </mxCell>
        <mxCell id="8owuQO46JdRlv9yFXmdw-22" style="edgeStyle=none;rounded=0;orthogonalLoop=1;jettySize=auto;html=1;entryX=0.059;entryY=-0.002;entryDx=0;entryDy=0;strokeColor=default;align=center;verticalAlign=middle;fontFamily=Helvetica;fontSize=11;fontColor=default;labelBackgroundColor=default;endArrow=none;endFill=0;entryPerimeter=0;" edge="1" parent="1" source="8owuQO46JdRlv9yFXmdw-21" target="8owuQO46JdRlv9yFXmdw-3">
          <mxGeometry relative="1" as="geometry">
            <mxPoint x="-180" y="40" as="targetPoint" />
          </mxGeometry>
        </mxCell>
        <mxCell id="8owuQO46JdRlv9yFXmdw-21" value="FORNECEDOR" style="ellipse;whiteSpace=wrap;html=1;align=center;fontFamily=Helvetica;fontSize=11;fontColor=default;labelBackgroundColor=default;" vertex="1" parent="1">
          <mxGeometry x="-310" y="-20" width="100" height="40" as="geometry" />
        </mxCell>
        <mxCell id="8owuQO46JdRlv9yFXmdw-24" style="edgeStyle=none;rounded=0;orthogonalLoop=1;jettySize=auto;html=1;entryX=0;entryY=0.25;entryDx=0;entryDy=0;strokeColor=default;align=center;verticalAlign=middle;fontFamily=Helvetica;fontSize=11;fontColor=default;labelBackgroundColor=default;endArrow=none;endFill=0;" edge="1" parent="1" source="8owuQO46JdRlv9yFXmdw-23" target="8owuQO46JdRlv9yFXmdw-3">
          <mxGeometry relative="1" as="geometry">
            <mxPoint x="-180" y="55" as="targetPoint" />
          </mxGeometry>
        </mxCell>
        <mxCell id="8owuQO46JdRlv9yFXmdw-23" value="&lt;font style=&quot;font-size: 10px;&quot;&gt;DATA DE VALIDADE&lt;/font&gt;" style="ellipse;whiteSpace=wrap;html=1;align=center;fontFamily=Helvetica;fontSize=11;fontColor=default;labelBackgroundColor=default;" vertex="1" parent="1">
          <mxGeometry x="-320" y="30" width="100" height="40" as="geometry" />
        </mxCell>
        <mxCell id="8owuQO46JdRlv9yFXmdw-25" value="ID_FORNECEDOR" style="ellipse;whiteSpace=wrap;html=1;align=center;fontStyle=4;" vertex="1" parent="1">
          <mxGeometry x="100" y="-60" width="100" height="40" as="geometry" />
        </mxCell>
      </root>
    </mxGraphModel>
  </diagram>
</mxfile>
